<svg viewBox="0 0 200 200" xmlns="http://www.w3.org/2000/svg">
    <defs>
      <linearGradient id="redGradient" x1="0%" y1="0%" x2="100%" y2="100%">
        <stop offset="0%" style="stop-color:#EF4444;stop-opacity:1" />
        <stop offset="100%" style="stop-color:#DC2626;stop-opacity:1" />
      </linearGradient>
    </defs>
    
    <!-- Circle background -->
    <circle cx="100" cy="100" r="90" fill="#DC2626"/>
    <circle cx="100" cy="100" r="85" fill="#B91C1C"/>
    
    <g transform="translate(100, 100)">
      <!-- Left weight plates -->
      <rect x="-65" y="-25" width="20" height="50" rx="3" fill="#DC2626"/>
      <rect x="-70" y="-20" width="10" height="40" rx="2" fill="#B91C1C"/>
      <rect x="-75" y="-15" width="8" height="30" rx="2" fill="#991B1B"/>
      
      <!-- Left grip -->
      <rect x="-45" y="-8" width="15" height="16" rx="2" fill="#7F1D1D"/>
      
      <!-- Center bar -->
      <rect x="-30" y="-5" width="60" height="10" rx="2" fill="url(#redGradient)"/>
      
      <!-- Right grip -->
      <rect x="30" y="-8" width="15" height="16" rx="2" fill="#7F1D1D"/>
      
      <!-- Right weight plates -->
      <rect x="45" y="-25" width="20" height="50" rx="3" fill="#DC2626"/>
      <rect x="60" y="-20" width="10" height="40" rx="2" fill="#B91C1C"/>
      <rect x="67" y="-15" width="8" height="30" rx="2" fill="#991B1B"/>
      
      <!-- Grip texture lines -->
      <line x1="-42" y1="-6" x2="-42" y2="6" stroke="#991B1B" stroke-width="1"/>
      <line x1="-38" y1="-6" x2="-38" y2="6" stroke="#991B1B" stroke-width="1"/>
      <line x1="-34" y1="-6" x2="-34" y2="6" stroke="#991B1B" stroke-width="1"/>
      
      <line x1="34" y1="-6" x2="34" y2="6" stroke="#991B1B" stroke-width="1"/>
      <line x1="38" y1="-6" x2="38" y2="6" stroke="#991B1B" stroke-width="1"/>
      <line x1="42" y1="-6" x2="42" y2="6" stroke="#991B1B" stroke-width="1"/>
    </g>
  </svg>